<svg width="200" height="60" viewBox="0 0 200 60" fill="none" xmlns="http://www.w3.org/2000/svg">
  <!-- Wave Icon -->
  <path d="M5 35 C15 25, 25 25, 35 35 C45 45, 55 45, 65 35 C75 25, 85 25, 95 35" 
        stroke="#007BFF" stroke-width="4" fill="none" stroke-linecap="round"/>
  <path d="M5 45 C15 35, 25 35, 35 45 C45 55, 55 55, 65 45 C75 35, 85 35, 95 45" 
        stroke="#007BFF" stroke-width="4" fill="none" stroke-linecap="round" opacity="0.6"/>
  
  <!-- Tech Icon (simple computer screen) -->
  <rect x="100" y="15" width="30" height="20" rx="2" fill="#007BFF" opacity="0.2"/>
  <rect x="105" y="20" width="20" height="10" rx="1" fill="#007BFF"/>
  <rect x="115" y="35" width="10" height="3" rx="1" fill="#007BFF"/>
  
  <!-- Text -->
  <text x="145" y="25" font-family="Arial, sans-serif" font-size="18" font-weight="bold" fill="#007BFF">BlueWave</text>
  <text x="145" y="42" font-family="Arial, sans-serif" font-size="14" fill="#0056B3">Tech Help</text>
</svg>

